<svg width="807" height="696" viewBox="0 0 807 696" fill="none" xmlns="http://www.w3.org/2000/svg">
<path d="M500.221 553.801L255.691 517.757C242.041 515.745 232.606 503.048 234.619 489.398L301.558 35.2712C303.57 21.6212 316.267 12.1864 329.917 14.1985L574.447 50.2426C588.097 52.2546 597.531 64.9516 595.519 78.6017L528.58 532.729C526.568 546.379 513.871 555.814 500.221 553.801Z" fill="white" stroke="#FF6464" stroke-width="3"/>
<path d="M428.997 216.672C442.567 240.83 464.362 270.167 483.574 290.132C485.857 292.506 485.29 296.357 482.419 297.97C458.264 311.542 428.931 333.343 408.967 352.558C406.594 354.841 402.743 354.274 401.129 351.403C387.559 327.245 365.764 297.908 346.552 277.943C344.269 275.569 344.836 271.718 347.707 270.105C371.862 256.533 401.195 234.732 421.159 215.517C423.533 213.234 427.385 213.801 428.997 216.672Z" fill="#FF6464"/>
<path d="M363.026 45.3073C369.811 57.3868 380.71 72.0549 390.315 82.0383C391.456 83.2244 391.172 85.1505 389.737 85.9569C377.66 92.7443 362.992 103.644 353.011 113.252C351.825 114.394 349.899 114.11 349.092 112.674C342.307 100.595 331.409 85.9268 321.804 75.9435C320.663 74.7574 320.947 72.8312 322.382 72.0248C334.459 65.2374 349.127 54.3379 359.108 44.7296C360.293 43.5873 362.219 43.8712 363.026 45.3073Z" fill="#FF6464"/>
<path d="M467.112 522.693C460.327 510.613 449.428 495.945 439.824 485.962C438.682 484.776 438.966 482.849 440.401 482.043C452.478 475.256 467.146 464.356 477.127 454.748C478.313 453.606 480.24 453.89 481.046 455.325C487.831 467.405 498.729 482.073 508.334 492.056C509.475 493.243 509.191 495.169 507.757 495.975C495.68 502.763 481.011 513.662 471.031 523.27C469.845 524.413 467.919 524.129 467.112 522.693Z" fill="#FF6464"/>
<g filter="url(#filter0_b)">
<g clip-path="url(#clip0)">
<path d="M444.985 630.573L228.264 511.721C216.166 505.086 211.737 489.9 218.371 477.803L439.097 75.3195C445.731 63.2217 460.917 58.7928 473.015 65.4273L689.736 184.279C701.834 190.914 706.263 206.1 699.628 218.197L478.903 620.68C472.269 632.778 457.083 637.207 444.985 630.573Z" fill="white" stroke="#515262" stroke-width="3"/>
<path d="M497.542 355.541C488.439 349.847 477.371 350.52 469.184 356.092C467.377 357.323 465.189 357.868 463.039 357.471C463.013 357.467 462.986 357.461 462.96 357.456C461.133 357.118 460.309 354.951 461.436 353.471C463.911 350.223 466.634 347.242 469.563 344.535C471.153 343.065 473.263 342.343 475.429 342.412C485.344 342.728 495.064 337.343 499.686 327.634C505.337 315.765 500.92 301.113 489.656 294.332C476.961 286.689 460.586 291.197 453.53 304.062C448.67 312.925 449.553 323.369 454.901 331.174C456.113 332.944 456.629 335.093 456.249 337.204C455.54 341.138 454.49 345.048 453.078 348.889C452.437 350.633 450.167 351.104 448.899 349.746C448.88 349.726 448.861 349.705 448.842 349.685C447.353 348.086 446.638 345.949 446.703 343.766C447 333.867 441.617 324.172 431.923 319.556C420.052 313.905 405.402 318.323 398.621 329.587C390.979 342.281 395.486 358.656 408.351 365.712C417.184 370.556 427.59 369.695 435.386 364.394C437.2 363.161 439.394 362.614 441.553 363.012C441.578 363.017 441.603 363.023 441.628 363.026C443.457 363.365 444.274 365.531 443.151 367.012C435.624 376.931 425.783 384.379 414.821 389.013C412.627 389.94 412.506 393.008 414.594 394.153L443.961 410.259C446.049 411.404 448.569 409.651 448.173 407.304C446.188 395.57 447.177 383.267 451.495 371.588C452.139 369.844 454.405 369.369 455.675 370.729C455.692 370.748 455.711 370.766 455.727 370.785C457.222 372.391 457.942 374.535 457.877 376.729C457.598 386.152 462.465 395.388 471.299 400.233C484.164 407.288 500.394 402.286 506.991 389.018C512.839 377.242 508.688 362.512 497.542 355.541Z" fill="#515262"/>
<path d="M497.003 139.547C491.801 136.293 485.474 136.678 480.794 139.863C479.761 140.566 478.51 140.878 477.281 140.651C477.267 140.648 477.25 140.645 477.236 140.642C476.192 140.448 475.721 139.21 476.366 138.365C477.78 136.51 479.338 134.805 481.011 133.258C481.92 132.417 483.126 132.004 484.364 132.043C490.032 132.224 495.587 129.146 498.229 123.597C501.46 116.812 498.935 108.437 492.496 104.562C485.24 100.194 475.879 102.77 471.846 110.124C469.068 115.19 469.573 121.16 472.631 125.62C473.325 126.632 473.618 127.86 473.401 129.067C472.996 131.316 472.395 133.551 471.588 135.746C471.222 136.743 469.925 137.012 469.2 136.237C469.19 136.224 469.178 136.213 469.168 136.202C468.318 135.287 467.908 134.066 467.946 132.818C468.116 127.159 465.038 121.617 459.497 118.979C452.713 115.748 444.338 118.274 440.462 124.712C436.094 131.968 438.671 141.329 446.024 145.362C451.074 148.131 457.022 147.639 461.478 144.607C462.515 143.902 463.77 143.59 465.003 143.817C465.017 143.82 465.032 143.823 465.046 143.826C466.091 144.021 466.559 145.259 465.916 146.104C461.614 151.773 455.988 156.031 449.723 158.68C448.467 159.211 448.397 160.965 449.59 161.619L466.378 170.825C467.571 171.48 469.012 170.479 468.785 169.137C467.65 162.43 468.217 155.397 470.684 148.722C471.053 147.724 472.348 147.454 473.073 148.231C473.083 148.242 473.093 148.253 473.103 148.263C473.958 149.181 474.369 150.407 474.332 151.66C474.172 157.047 476.954 162.327 482.003 165.096C489.357 169.129 498.635 166.27 502.405 158.686C505.747 151.951 503.375 143.532 497.003 139.547Z" fill="#515262"/>
<path d="M420.995 556.452C426.197 559.706 432.525 559.321 437.205 556.136C438.238 555.434 439.488 555.121 440.717 555.348C440.732 555.352 440.749 555.354 440.763 555.357C441.807 555.551 442.278 556.789 441.633 557.634C440.219 559.49 438.661 561.195 436.988 562.742C436.079 563.582 434.873 563.995 433.635 563.956C427.966 563.775 422.411 566.853 419.769 572.403C416.539 579.187 419.064 587.562 425.503 591.437C432.758 595.805 442.119 593.229 446.152 585.875C448.93 580.809 448.426 574.839 445.369 570.378C444.675 569.365 444.381 568.138 444.598 566.93C445.004 564.681 445.604 562.447 446.411 560.251C446.778 559.255 448.075 558.985 448.799 559.761C448.809 559.774 448.822 559.785 448.831 559.796C449.681 560.71 450.092 561.932 450.054 563.18C449.884 568.839 452.961 574.381 458.502 577.019C465.287 580.249 473.662 577.724 477.537 571.285C481.905 564.03 479.329 554.669 471.975 550.636C466.926 547.867 460.977 548.359 456.522 551.39C455.485 552.096 454.229 552.407 452.996 552.18C452.982 552.177 452.968 552.175 452.953 552.172C451.908 551.977 451.441 550.739 452.083 549.894C456.385 544.225 462.012 539.967 468.277 537.318C469.53 536.789 469.601 535.036 468.407 534.381L451.62 525.174C450.426 524.52 448.986 525.521 449.212 526.863C450.347 533.57 449.78 540.603 447.313 547.277C446.945 548.275 445.649 548.546 444.924 547.769C444.914 547.758 444.904 547.747 444.894 547.737C444.039 546.819 443.628 545.593 443.665 544.34C443.825 538.953 441.043 533.673 435.994 530.904C428.64 526.871 419.362 529.73 415.592 537.314C412.252 544.047 414.625 552.468 420.995 556.452Z" fill="#515262"/>
</g>
</g>
<g clip-path="url(#clip1)">
<path d="M505.359 578.23L267.72 646.215C254.455 650.01 240.624 642.333 236.829 629.067L110.572 187.738C106.776 174.473 114.454 160.642 127.719 156.847L365.358 88.8627C378.623 85.0676 392.454 92.7451 396.249 106.01L522.506 547.339C526.301 560.605 518.624 574.435 505.359 578.23Z" fill="white" stroke="#FF6464" stroke-width="3"/>
<path d="M253.024 370.186C247.846 352.088 258.235 333.245 276.229 328.097C285.148 325.545 294.254 326.845 301.806 331.004C304.605 332.545 308.159 331.529 309.72 328.74C313.929 321.216 320.971 315.297 329.889 312.746C347.883 307.598 366.666 318.096 371.843 336.193C381.525 370.037 346.753 413.292 336.573 425.011C334.928 426.905 332.332 427.647 329.934 426.911C315.094 422.349 262.706 404.03 253.024 370.186Z" fill="#FF6464"/>
<path d="M139.948 199.592C136.989 189.25 142.926 178.482 153.207 175.541C158.304 174.083 163.507 174.825 167.822 177.202C169.421 178.084 171.453 177.503 172.344 175.908C174.75 171.61 178.774 168.227 183.869 166.769C194.151 163.827 204.884 169.826 207.843 180.168C213.376 199.507 193.506 224.225 187.688 230.921C186.748 232.003 185.265 232.428 183.893 232.007C175.416 229.4 145.48 218.931 139.948 199.592Z" fill="#FF6464"/>
<path d="M493.13 535.486C496.088 545.827 490.151 556.596 479.87 559.537C474.774 560.995 469.57 560.253 465.255 557.876C463.656 556.994 461.623 557.575 460.732 559.17C458.327 563.468 454.303 566.851 449.207 568.309C438.924 571.251 428.192 565.252 425.234 554.91C419.701 535.571 439.571 510.854 445.388 504.157C446.329 503.075 447.811 502.651 449.183 503.072C457.661 505.678 487.597 516.147 493.13 535.486Z" fill="#FF6464"/>
</g>
<g filter="url(#filter1_d)">
<path d="M373.281 242.139C383.997 242.139 392.49 245.217 398.76 251.373C405.144 257.415 408.336 265.509 408.336 275.655C408.336 282.837 406.626 289.107 403.206 294.465C399.9 299.709 395.226 303.756 389.184 306.606C383.256 309.456 376.359 310.881 368.493 310.881C356.637 310.881 347.175 307.746 340.107 301.476C333.153 295.206 329.676 286.713 329.676 275.997C329.676 269.271 330.873 262.944 333.267 257.016C335.661 251.088 339.936 243.678 346.092 234.786L369.177 201.099L387.303 213.069L366.954 242.823C368.778 242.367 370.887 242.139 373.281 242.139ZM369.177 292.584C373.737 292.584 377.214 291.045 379.608 287.967C382.116 284.889 383.37 280.671 383.37 275.313C383.37 270.069 382.116 265.965 379.608 263.001C377.214 260.037 373.794 258.555 369.348 258.555C365.016 258.555 361.482 260.094 358.746 263.172C356.124 266.136 354.813 270.24 354.813 275.484C354.813 280.728 356.067 284.889 358.575 287.967C361.083 291.045 364.617 292.584 369.177 292.584Z" fill="#515262"/>
<path d="M466.129 242.139C476.845 242.139 485.338 245.217 491.608 251.373C497.992 257.415 501.184 265.509 501.184 275.655C501.184 282.837 499.474 289.107 496.054 294.465C492.748 299.709 488.074 303.756 482.032 306.606C476.104 309.456 469.207 310.881 461.341 310.881C449.485 310.881 440.023 307.746 432.955 301.476C426.001 295.206 422.524 286.713 422.524 275.997C422.524 269.271 423.721 262.944 426.115 257.016C428.509 251.088 432.784 243.678 438.94 234.786L462.025 201.099L480.151 213.069L459.802 242.823C461.626 242.367 463.735 242.139 466.129 242.139ZM462.025 292.584C466.585 292.584 470.062 291.045 472.456 287.967C474.964 284.889 476.218 280.671 476.218 275.313C476.218 270.069 474.964 265.965 472.456 263.001C470.062 260.037 466.642 258.555 462.196 258.555C457.864 258.555 454.33 260.094 451.594 263.172C448.972 266.136 447.661 270.24 447.661 275.484C447.661 280.728 448.915 284.889 451.423 287.967C453.931 291.045 457.465 292.584 462.025 292.584Z" fill="#FF6464"/>
</g>
<defs>
<filter id="filter0_b" x="107.441" y="-3.55884" width="703.118" height="703.118" filterUnits="userSpaceOnUse" color-interpolation-filters="sRGB">
<feFlood flood-opacity="0" result="BackgroundImageFix"/>
<feGaussianBlur in="BackgroundImage" stdDeviation="2"/>
<feComposite in2="SourceAlpha" operator="in" result="effect1_backgroundBlur"/>
<feBlend mode="normal" in="SourceGraphic" in2="effect1_backgroundBlur" result="shape"/>
</filter>
<filter id="filter1_d" x="325.676" y="201.099" width="179.508" height="117.782" filterUnits="userSpaceOnUse" color-interpolation-filters="sRGB">
<feFlood flood-opacity="0" result="BackgroundImageFix"/>
<feColorMatrix in="SourceAlpha" type="matrix" values="0 0 0 0 0 0 0 0 0 0 0 0 0 0 0 0 0 0 127 0" result="hardAlpha"/>
<feOffset dy="4"/>
<feGaussianBlur stdDeviation="2"/>
<feComposite in2="hardAlpha" operator="out"/>
<feColorMatrix type="matrix" values="0 0 0 0 0 0 0 0 0 0 0 0 0 0 0 0 0 0 0.25 0"/>
<feBlend mode="normal" in2="BackgroundImageFix" result="effect1_dropShadow"/>
<feBlend mode="normal" in="SourceGraphic" in2="effect1_dropShadow" result="shape"/>
</filter>
<clipPath id="clip0">
<rect width="512" height="512" fill="white" transform="translate(357.635 0.441162) rotate(28.7407)"/>
</clipPath>
<clipPath id="clip1">
<rect width="512" height="512" fill="white" transform="translate(0 191.826) rotate(-15.965)"/>
</clipPath>
</defs>
</svg>
